<mxfile host="app.diagrams.net" modified="2023-07-15T22:09:03.810Z" agent="Mozilla/5.0 (Windows NT 10.0; Win64; x64) AppleWebKit/537.36 (KHTML, like Gecko) Chrome/114.0.0.0 Safari/537.36" etag="0HBXyxocleUelVn3dcsy" version="21.6.2" type="github">
  <diagram name="Página-1" id="ox36NpzCEiN9eM1kIvZB">
    <mxGraphModel dx="2049" dy="1091" grid="1" gridSize="10" guides="1" tooltips="1" connect="1" arrows="1" fold="1" page="1" pageScale="1" pageWidth="827" pageHeight="1169" math="0" shadow="0">
      <root>
        <mxCell id="0" />
        <mxCell id="1" parent="0" />
        <mxCell id="qIK1y274Gimavd5BamU5-14" style="edgeStyle=orthogonalEdgeStyle;rounded=0;orthogonalLoop=1;jettySize=auto;html=1;exitX=0.5;exitY=1;exitDx=0;exitDy=0;entryX=0.5;entryY=0;entryDx=0;entryDy=0;" parent="1" source="qIK1y274Gimavd5BamU5-1" target="qIK1y274Gimavd5BamU5-9" edge="1">
          <mxGeometry relative="1" as="geometry" />
        </mxCell>
        <mxCell id="qIK1y274Gimavd5BamU5-1" value="" style="rounded=0;whiteSpace=wrap;html=1;fillColor=#dae8fc;strokeColor=#6c8ebf;" parent="1" vertex="1">
          <mxGeometry x="70" y="30" width="220" height="70" as="geometry" />
        </mxCell>
        <mxCell id="qIK1y274Gimavd5BamU5-2" value="Comienza la aventura y tu eres desafiado a dar la vuelta al mundo en 80 días, Aceptas?" style="text;html=1;align=center;verticalAlign=middle;whiteSpace=wrap;rounded=0;" parent="1" vertex="1">
          <mxGeometry x="80" y="40" width="200" height="50" as="geometry" />
        </mxCell>
        <mxCell id="qIK1y274Gimavd5BamU5-3" value="" style="rhombus;whiteSpace=wrap;html=1;fillColor=#f8cecc;strokeColor=#b85450;" parent="1" vertex="1">
          <mxGeometry x="330" y="37.5" width="55" height="55" as="geometry" />
        </mxCell>
        <mxCell id="qIK1y274Gimavd5BamU5-4" value="No" style="text;html=1;align=center;verticalAlign=middle;whiteSpace=wrap;rounded=0;" parent="1" vertex="1">
          <mxGeometry x="328" y="50" width="60" height="30" as="geometry" />
        </mxCell>
        <mxCell id="qIK1y274Gimavd5BamU5-5" value="" style="endArrow=classic;html=1;rounded=0;exitX=1;exitY=0.5;exitDx=0;exitDy=0;entryX=0;entryY=0.5;entryDx=0;entryDy=0;" parent="1" source="qIK1y274Gimavd5BamU5-1" target="qIK1y274Gimavd5BamU5-3" edge="1">
          <mxGeometry width="50" height="50" relative="1" as="geometry">
            <mxPoint x="390" y="420" as="sourcePoint" />
            <mxPoint x="440" y="370" as="targetPoint" />
            <Array as="points" />
          </mxGeometry>
        </mxCell>
        <mxCell id="qIK1y274Gimavd5BamU5-6" value="" style="ellipse;whiteSpace=wrap;html=1;fillColor=#d5e8d4;strokeColor=#82b366;" parent="1" vertex="1">
          <mxGeometry x="440" y="25" width="120" height="80" as="geometry" />
        </mxCell>
        <mxCell id="qIK1y274Gimavd5BamU5-7" value="&lt;font style=&quot;font-size: 10px;&quot;&gt;Te has quedado en casa y no participaste en la apuesta.&lt;br&gt;Fin bueno(?)&lt;br&gt;&lt;/font&gt;" style="text;html=1;strokeColor=none;fillColor=none;align=center;verticalAlign=middle;whiteSpace=wrap;rounded=0;" parent="1" vertex="1">
          <mxGeometry x="450" y="35" width="100" height="60" as="geometry" />
        </mxCell>
        <mxCell id="qIK1y274Gimavd5BamU5-8" value="" style="endArrow=classic;html=1;rounded=0;exitX=1;exitY=0.5;exitDx=0;exitDy=0;entryX=0;entryY=0.5;entryDx=0;entryDy=0;" parent="1" source="qIK1y274Gimavd5BamU5-4" target="qIK1y274Gimavd5BamU5-6" edge="1">
          <mxGeometry width="50" height="50" relative="1" as="geometry">
            <mxPoint x="420" y="260" as="sourcePoint" />
            <mxPoint x="470" y="210" as="targetPoint" />
          </mxGeometry>
        </mxCell>
        <mxCell id="qIK1y274Gimavd5BamU5-18" style="edgeStyle=orthogonalEdgeStyle;rounded=0;orthogonalLoop=1;jettySize=auto;html=1;exitX=0.5;exitY=1;exitDx=0;exitDy=0;entryX=0.5;entryY=0;entryDx=0;entryDy=0;" parent="1" source="qIK1y274Gimavd5BamU5-9" target="qIK1y274Gimavd5BamU5-16" edge="1">
          <mxGeometry relative="1" as="geometry" />
        </mxCell>
        <mxCell id="qIK1y274Gimavd5BamU5-9" value="" style="rhombus;whiteSpace=wrap;html=1;fillColor=#f8cecc;strokeColor=#b85450;" parent="1" vertex="1">
          <mxGeometry x="155" y="130" width="50" height="50" as="geometry" />
        </mxCell>
        <mxCell id="qIK1y274Gimavd5BamU5-10" value="Si" style="text;html=1;strokeColor=none;fillColor=none;align=center;verticalAlign=middle;whiteSpace=wrap;rounded=0;" parent="1" vertex="1">
          <mxGeometry x="150" y="140" width="60" height="30" as="geometry" />
        </mxCell>
        <mxCell id="qIK1y274Gimavd5BamU5-15" value="" style="rounded=0;whiteSpace=wrap;html=1;" parent="1" vertex="1">
          <mxGeometry x="70" y="200" width="220" height="70" as="geometry" />
        </mxCell>
        <mxCell id="qIK1y274Gimavd5BamU5-23" style="edgeStyle=orthogonalEdgeStyle;rounded=0;orthogonalLoop=1;jettySize=auto;html=1;exitX=0.5;exitY=1;exitDx=0;exitDy=0;entryX=0.5;entryY=0;entryDx=0;entryDy=0;" parent="1" source="qIK1y274Gimavd5BamU5-16" target="qIK1y274Gimavd5BamU5-20" edge="1">
          <mxGeometry relative="1" as="geometry" />
        </mxCell>
        <mxCell id="qIK1y274Gimavd5BamU5-24" style="edgeStyle=orthogonalEdgeStyle;rounded=0;orthogonalLoop=1;jettySize=auto;html=1;exitX=1;exitY=0.5;exitDx=0;exitDy=0;entryX=0;entryY=0.5;entryDx=0;entryDy=0;" parent="1" source="qIK1y274Gimavd5BamU5-16" target="qIK1y274Gimavd5BamU5-21" edge="1">
          <mxGeometry relative="1" as="geometry" />
        </mxCell>
        <mxCell id="qIK1y274Gimavd5BamU5-16" value="Piensas en que estilo de vehículo planeas usar en tu viaje, decides algo común o algo exótico" style="text;html=1;strokeColor=#6c8ebf;fillColor=#dae8fc;align=center;verticalAlign=middle;whiteSpace=wrap;rounded=0;" parent="1" vertex="1">
          <mxGeometry x="70" y="200" width="220" height="70" as="geometry" />
        </mxCell>
        <mxCell id="qIK1y274Gimavd5BamU5-19" value="" style="rhombus;whiteSpace=wrap;html=1;fillColor=#f8cecc;strokeColor=#b85450;" parent="1" vertex="1">
          <mxGeometry x="318" y="205" width="60" height="60" as="geometry" />
        </mxCell>
        <mxCell id="qIK1y274Gimavd5BamU5-51" style="edgeStyle=orthogonalEdgeStyle;rounded=0;orthogonalLoop=1;jettySize=auto;html=1;exitX=0.5;exitY=1;exitDx=0;exitDy=0;entryX=0;entryY=0.5;entryDx=0;entryDy=0;" parent="1" source="qIK1y274Gimavd5BamU5-20" target="qIK1y274Gimavd5BamU5-50" edge="1">
          <mxGeometry relative="1" as="geometry" />
        </mxCell>
        <mxCell id="qIK1y274Gimavd5BamU5-20" value="" style="rhombus;whiteSpace=wrap;html=1;fillColor=#f8cecc;strokeColor=#b85450;" parent="1" vertex="1">
          <mxGeometry x="150" y="290" width="60" height="60" as="geometry" />
        </mxCell>
        <mxCell id="qIK1y274Gimavd5BamU5-26" style="edgeStyle=orthogonalEdgeStyle;rounded=0;orthogonalLoop=1;jettySize=auto;html=1;exitX=1;exitY=0.5;exitDx=0;exitDy=0;entryX=0;entryY=0.5;entryDx=0;entryDy=0;" parent="1" source="qIK1y274Gimavd5BamU5-21" target="qIK1y274Gimavd5BamU5-25" edge="1">
          <mxGeometry relative="1" as="geometry" />
        </mxCell>
        <mxCell id="qIK1y274Gimavd5BamU5-21" value="Común" style="text;html=1;strokeColor=none;fillColor=none;align=center;verticalAlign=middle;whiteSpace=wrap;rounded=0;" parent="1" vertex="1">
          <mxGeometry x="318" y="220" width="60" height="30" as="geometry" />
        </mxCell>
        <mxCell id="qIK1y274Gimavd5BamU5-22" value="Exótico" style="text;html=1;strokeColor=none;fillColor=none;align=center;verticalAlign=middle;whiteSpace=wrap;rounded=0;" parent="1" vertex="1">
          <mxGeometry x="150" y="305" width="60" height="30" as="geometry" />
        </mxCell>
        <mxCell id="qIK1y274Gimavd5BamU5-25" value="" style="rounded=0;whiteSpace=wrap;html=1;fillColor=#dae8fc;strokeColor=#6c8ebf;" parent="1" vertex="1">
          <mxGeometry x="410" y="200" width="170" height="70" as="geometry" />
        </mxCell>
        <mxCell id="qIK1y274Gimavd5BamU5-30" style="edgeStyle=orthogonalEdgeStyle;rounded=0;orthogonalLoop=1;jettySize=auto;html=1;exitX=1;exitY=0.5;exitDx=0;exitDy=0;entryX=0;entryY=0.5;entryDx=0;entryDy=0;" parent="1" source="qIK1y274Gimavd5BamU5-27" target="qIK1y274Gimavd5BamU5-29" edge="1">
          <mxGeometry relative="1" as="geometry" />
        </mxCell>
        <mxCell id="qIK1y274Gimavd5BamU5-33" style="edgeStyle=orthogonalEdgeStyle;rounded=0;orthogonalLoop=1;jettySize=auto;html=1;exitX=0.5;exitY=1;exitDx=0;exitDy=0;entryX=0.5;entryY=0;entryDx=0;entryDy=0;" parent="1" source="qIK1y274Gimavd5BamU5-27" target="qIK1y274Gimavd5BamU5-31" edge="1">
          <mxGeometry relative="1" as="geometry" />
        </mxCell>
        <mxCell id="qIK1y274Gimavd5BamU5-27" value="Te está siguiendo un vehículo, puedes intentar perderlo o te detienes a ver que quieren" style="text;html=1;strokeColor=none;fillColor=none;align=center;verticalAlign=middle;whiteSpace=wrap;rounded=0;" parent="1" vertex="1">
          <mxGeometry x="410" y="200" width="170" height="70" as="geometry" />
        </mxCell>
        <mxCell id="qIK1y274Gimavd5BamU5-28" value="" style="rhombus;whiteSpace=wrap;html=1;fillColor=#f8cecc;strokeColor=#b85450;" parent="1" vertex="1">
          <mxGeometry x="600" y="205" width="60" height="60" as="geometry" />
        </mxCell>
        <mxCell id="qIK1y274Gimavd5BamU5-35" style="edgeStyle=orthogonalEdgeStyle;rounded=0;orthogonalLoop=1;jettySize=auto;html=1;exitX=1;exitY=0.5;exitDx=0;exitDy=0;entryX=0;entryY=0.5;entryDx=0;entryDy=0;" parent="1" source="qIK1y274Gimavd5BamU5-29" target="qIK1y274Gimavd5BamU5-34" edge="1">
          <mxGeometry relative="1" as="geometry" />
        </mxCell>
        <mxCell id="qIK1y274Gimavd5BamU5-29" value="Detienes" style="text;html=1;strokeColor=none;fillColor=none;align=center;verticalAlign=middle;whiteSpace=wrap;rounded=0;" parent="1" vertex="1">
          <mxGeometry x="600" y="220" width="60" height="30" as="geometry" />
        </mxCell>
        <mxCell id="qIK1y274Gimavd5BamU5-47" style="edgeStyle=orthogonalEdgeStyle;rounded=0;orthogonalLoop=1;jettySize=auto;html=1;exitX=0.5;exitY=1;exitDx=0;exitDy=0;entryX=0;entryY=0.5;entryDx=0;entryDy=0;" parent="1" source="qIK1y274Gimavd5BamU5-31" target="qIK1y274Gimavd5BamU5-46" edge="1">
          <mxGeometry relative="1" as="geometry" />
        </mxCell>
        <mxCell id="qIK1y274Gimavd5BamU5-31" value="" style="rhombus;whiteSpace=wrap;html=1;fillColor=#f8cecc;strokeColor=#b85450;" parent="1" vertex="1">
          <mxGeometry x="465" y="290" width="60" height="60" as="geometry" />
        </mxCell>
        <mxCell id="qIK1y274Gimavd5BamU5-32" value="&lt;font style=&quot;font-size: 10px;&quot;&gt;Intentas perderlo&lt;/font&gt;" style="text;html=1;strokeColor=none;fillColor=none;align=center;verticalAlign=middle;whiteSpace=wrap;rounded=0;" parent="1" vertex="1">
          <mxGeometry x="465" y="305" width="60" height="30" as="geometry" />
        </mxCell>
        <mxCell id="qIK1y274Gimavd5BamU5-34" value="" style="rounded=0;whiteSpace=wrap;html=1;" parent="1" vertex="1">
          <mxGeometry x="680" y="200" width="140" height="70" as="geometry" />
        </mxCell>
        <mxCell id="qIK1y274Gimavd5BamU5-39" style="edgeStyle=orthogonalEdgeStyle;rounded=0;orthogonalLoop=1;jettySize=auto;html=1;exitX=0.5;exitY=0;exitDx=0;exitDy=0;entryX=0.5;entryY=1;entryDx=0;entryDy=0;" parent="1" source="qIK1y274Gimavd5BamU5-36" target="qIK1y274Gimavd5BamU5-37" edge="1">
          <mxGeometry relative="1" as="geometry" />
        </mxCell>
        <mxCell id="qIK1y274Gimavd5BamU5-49" style="edgeStyle=orthogonalEdgeStyle;rounded=0;orthogonalLoop=1;jettySize=auto;html=1;exitX=0.5;exitY=1;exitDx=0;exitDy=0;entryX=0.5;entryY=0;entryDx=0;entryDy=0;" parent="1" source="qIK1y274Gimavd5BamU5-36" target="qIK1y274Gimavd5BamU5-43" edge="1">
          <mxGeometry relative="1" as="geometry" />
        </mxCell>
        <mxCell id="qIK1y274Gimavd5BamU5-36" value="Es un policía que te cuestiona porque ibas a tanta velocidad, eres honesto o mientes?" style="text;html=1;strokeColor=#6c8ebf;fillColor=#dae8fc;align=center;verticalAlign=middle;whiteSpace=wrap;rounded=0;" parent="1" vertex="1">
          <mxGeometry x="680" y="200" width="140" height="70" as="geometry" />
        </mxCell>
        <mxCell id="qIK1y274Gimavd5BamU5-41" style="edgeStyle=orthogonalEdgeStyle;rounded=0;orthogonalLoop=1;jettySize=auto;html=1;exitX=0.5;exitY=0;exitDx=0;exitDy=0;entryX=0.5;entryY=1;entryDx=0;entryDy=0;" parent="1" source="qIK1y274Gimavd5BamU5-37" target="qIK1y274Gimavd5BamU5-40" edge="1">
          <mxGeometry relative="1" as="geometry" />
        </mxCell>
        <mxCell id="qIK1y274Gimavd5BamU5-37" value="" style="rhombus;whiteSpace=wrap;html=1;fillColor=#f8cecc;strokeColor=#b85450;" parent="1" vertex="1">
          <mxGeometry x="722.5" y="130" width="55" height="55" as="geometry" />
        </mxCell>
        <mxCell id="qIK1y274Gimavd5BamU5-38" value="&lt;font style=&quot;font-size: 8px;&quot;&gt;Eres honesto&lt;/font&gt;" style="text;html=1;strokeColor=none;fillColor=none;align=center;verticalAlign=middle;whiteSpace=wrap;rounded=0;" parent="1" vertex="1">
          <mxGeometry x="720" y="142.5" width="60" height="30" as="geometry" />
        </mxCell>
        <mxCell id="qIK1y274Gimavd5BamU5-40" value="" style="ellipse;whiteSpace=wrap;html=1;fillColor=#FF9999;strokeColor=#b85450;" parent="1" vertex="1">
          <mxGeometry x="690" y="25" width="120" height="80" as="geometry" />
        </mxCell>
        <mxCell id="qIK1y274Gimavd5BamU5-42" value="&lt;font style=&quot;font-size: 11px;&quot;&gt;El policía no te creyo y fuiste arrestado, fin malo&lt;/font&gt;" style="text;html=1;strokeColor=none;fillColor=none;align=center;verticalAlign=middle;whiteSpace=wrap;rounded=0;" parent="1" vertex="1">
          <mxGeometry x="690" y="35" width="120" height="70" as="geometry" />
        </mxCell>
        <mxCell id="qIK1y274Gimavd5BamU5-48" style="edgeStyle=orthogonalEdgeStyle;rounded=0;orthogonalLoop=1;jettySize=auto;html=1;exitX=0.5;exitY=1;exitDx=0;exitDy=0;entryX=1;entryY=0.5;entryDx=0;entryDy=0;" parent="1" source="qIK1y274Gimavd5BamU5-43" target="qIK1y274Gimavd5BamU5-46" edge="1">
          <mxGeometry relative="1" as="geometry" />
        </mxCell>
        <mxCell id="qIK1y274Gimavd5BamU5-43" value="" style="rhombus;whiteSpace=wrap;html=1;fillColor=#f8cecc;strokeColor=#b85450;" parent="1" vertex="1">
          <mxGeometry x="720" y="290" width="60" height="60" as="geometry" />
        </mxCell>
        <mxCell id="qIK1y274Gimavd5BamU5-44" value="Mientes" style="text;html=1;strokeColor=none;fillColor=none;align=center;verticalAlign=middle;whiteSpace=wrap;rounded=0;" parent="1" vertex="1">
          <mxGeometry x="720" y="305" width="60" height="30" as="geometry" />
        </mxCell>
        <mxCell id="qIK1y274Gimavd5BamU5-45" value="" style="rounded=0;whiteSpace=wrap;html=1;" parent="1" vertex="1">
          <mxGeometry x="525" y="360" width="200" height="70" as="geometry" />
        </mxCell>
        <mxCell id="qIK1y274Gimavd5BamU5-64" style="edgeStyle=orthogonalEdgeStyle;rounded=0;orthogonalLoop=1;jettySize=auto;html=1;exitX=0.5;exitY=1;exitDx=0;exitDy=0;entryX=1;entryY=0.5;entryDx=0;entryDy=0;" parent="1" source="qIK1y274Gimavd5BamU5-46" target="qIK1y274Gimavd5BamU5-62" edge="1">
          <mxGeometry relative="1" as="geometry" />
        </mxCell>
        <mxCell id="qIK1y274Gimavd5BamU5-65" style="edgeStyle=orthogonalEdgeStyle;rounded=0;orthogonalLoop=1;jettySize=auto;html=1;exitX=0.5;exitY=1;exitDx=0;exitDy=0;entryX=0;entryY=0.5;entryDx=0;entryDy=0;" parent="1" source="qIK1y274Gimavd5BamU5-46" target="qIK1y274Gimavd5BamU5-63" edge="1">
          <mxGeometry relative="1" as="geometry" />
        </mxCell>
        <mxCell id="qIK1y274Gimavd5BamU5-46" value="Llegas a un aeropuerto y tomas un aeroplano, decides ir a India o China" style="text;html=1;strokeColor=#6c8ebf;fillColor=#dae8fc;align=center;verticalAlign=middle;whiteSpace=wrap;rounded=0;" parent="1" vertex="1">
          <mxGeometry x="525" y="360" width="200" height="70" as="geometry" />
        </mxCell>
        <mxCell id="qIK1y274Gimavd5BamU5-50" value="" style="rounded=0;whiteSpace=wrap;html=1;" parent="1" vertex="1">
          <mxGeometry x="220" y="360" width="190" height="70" as="geometry" />
        </mxCell>
        <mxCell id="qIK1y274Gimavd5BamU5-54" style="edgeStyle=orthogonalEdgeStyle;rounded=0;orthogonalLoop=1;jettySize=auto;html=1;exitX=0.5;exitY=1;exitDx=0;exitDy=0;entryX=1;entryY=0.5;entryDx=0;entryDy=0;" parent="1" source="qIK1y274Gimavd5BamU5-52" target="qIK1y274Gimavd5BamU5-53" edge="1">
          <mxGeometry relative="1" as="geometry" />
        </mxCell>
        <mxCell id="qIK1y274Gimavd5BamU5-60" style="edgeStyle=orthogonalEdgeStyle;rounded=0;orthogonalLoop=1;jettySize=auto;html=1;exitX=0.5;exitY=1;exitDx=0;exitDy=0;entryX=0;entryY=0.5;entryDx=0;entryDy=0;" parent="1" source="qIK1y274Gimavd5BamU5-52" target="qIK1y274Gimavd5BamU5-59" edge="1">
          <mxGeometry relative="1" as="geometry" />
        </mxCell>
        <mxCell id="qIK1y274Gimavd5BamU5-52" value="Abordas un globo de aire, durante tu viaje notas una tormenta, atravesas la tormenta o la esquivas?" style="text;html=1;strokeColor=#6c8ebf;fillColor=#dae8fc;align=center;verticalAlign=middle;whiteSpace=wrap;rounded=0;" parent="1" vertex="1">
          <mxGeometry x="220" y="360" width="190" height="70" as="geometry" />
        </mxCell>
        <mxCell id="qIK1y274Gimavd5BamU5-53" value="" style="rhombus;whiteSpace=wrap;html=1;fillColor=#f8cecc;strokeColor=#b85450;" parent="1" vertex="1">
          <mxGeometry x="170" y="450" width="60" height="60" as="geometry" />
        </mxCell>
        <mxCell id="qIK1y274Gimavd5BamU5-57" style="edgeStyle=orthogonalEdgeStyle;rounded=0;orthogonalLoop=1;jettySize=auto;html=1;exitX=0;exitY=0.5;exitDx=0;exitDy=0;entryX=1;entryY=0.5;entryDx=0;entryDy=0;" parent="1" source="qIK1y274Gimavd5BamU5-55" target="qIK1y274Gimavd5BamU5-56" edge="1">
          <mxGeometry relative="1" as="geometry" />
        </mxCell>
        <mxCell id="qIK1y274Gimavd5BamU5-55" value="&lt;font style=&quot;font-size: 11px;&quot;&gt;Atravesar&lt;/font&gt;" style="text;html=1;strokeColor=none;fillColor=none;align=center;verticalAlign=middle;whiteSpace=wrap;rounded=0;" parent="1" vertex="1">
          <mxGeometry x="170" y="465" width="60" height="30" as="geometry" />
        </mxCell>
        <mxCell id="qIK1y274Gimavd5BamU5-56" value="" style="ellipse;whiteSpace=wrap;html=1;fillColor=#FF9999;strokeColor=#b85450;" parent="1" vertex="1">
          <mxGeometry x="20" y="440" width="120" height="80" as="geometry" />
        </mxCell>
        <mxCell id="qIK1y274Gimavd5BamU5-58" value="&lt;font style=&quot;font-size: 11px;&quot;&gt;Trueno atraviesa tu globo y cae al mar y te pierdes en el.&lt;br&gt;Fin malo&lt;/font&gt;" style="text;html=1;strokeColor=none;fillColor=none;align=center;verticalAlign=middle;whiteSpace=wrap;rounded=0;" parent="1" vertex="1">
          <mxGeometry x="20" y="440" width="120" height="80" as="geometry" />
        </mxCell>
        <mxCell id="qIK1y274Gimavd5BamU5-59" value="" style="rhombus;whiteSpace=wrap;html=1;fillColor=#f8cecc;strokeColor=#b85450;" parent="1" vertex="1">
          <mxGeometry x="400" y="450" width="60" height="60" as="geometry" />
        </mxCell>
        <mxCell id="qIK1y274Gimavd5BamU5-67" style="edgeStyle=orthogonalEdgeStyle;rounded=0;orthogonalLoop=1;jettySize=auto;html=1;exitX=1;exitY=0.5;exitDx=0;exitDy=0;entryX=0.5;entryY=0;entryDx=0;entryDy=0;" parent="1" source="qIK1y274Gimavd5BamU5-61" target="qIK1y274Gimavd5BamU5-66" edge="1">
          <mxGeometry relative="1" as="geometry" />
        </mxCell>
        <mxCell id="qIK1y274Gimavd5BamU5-61" value="Esquivas" style="text;html=1;strokeColor=none;fillColor=none;align=center;verticalAlign=middle;whiteSpace=wrap;rounded=0;" parent="1" vertex="1">
          <mxGeometry x="400" y="465" width="60" height="30" as="geometry" />
        </mxCell>
        <mxCell id="qIK1y274Gimavd5BamU5-69" style="edgeStyle=orthogonalEdgeStyle;rounded=0;orthogonalLoop=1;jettySize=auto;html=1;exitX=0;exitY=0.5;exitDx=0;exitDy=0;entryX=0.5;entryY=0;entryDx=0;entryDy=0;" parent="1" source="qIK1y274Gimavd5BamU5-62" target="qIK1y274Gimavd5BamU5-66" edge="1">
          <mxGeometry relative="1" as="geometry" />
        </mxCell>
        <mxCell id="qIK1y274Gimavd5BamU5-62" value="India" style="rhombus;whiteSpace=wrap;html=1;fillColor=#f8cecc;strokeColor=#b85450;" parent="1" vertex="1">
          <mxGeometry x="525" y="450" width="60" height="60" as="geometry" />
        </mxCell>
        <mxCell id="qIK1y274Gimavd5BamU5-71" style="edgeStyle=orthogonalEdgeStyle;rounded=0;orthogonalLoop=1;jettySize=auto;html=1;exitX=0.5;exitY=1;exitDx=0;exitDy=0;entryX=0.5;entryY=0;entryDx=0;entryDy=0;" parent="1" source="qIK1y274Gimavd5BamU5-63" target="qIK1y274Gimavd5BamU5-70" edge="1">
          <mxGeometry relative="1" as="geometry" />
        </mxCell>
        <mxCell id="qIK1y274Gimavd5BamU5-63" value="China" style="rhombus;whiteSpace=wrap;html=1;fillColor=#f8cecc;strokeColor=#b85450;" parent="1" vertex="1">
          <mxGeometry x="670" y="450" width="60" height="60" as="geometry" />
        </mxCell>
        <mxCell id="qIK1y274Gimavd5BamU5-80" style="edgeStyle=orthogonalEdgeStyle;rounded=0;orthogonalLoop=1;jettySize=auto;html=1;exitX=0.5;exitY=1;exitDx=0;exitDy=0;entryX=1;entryY=0.5;entryDx=0;entryDy=0;" parent="1" source="qIK1y274Gimavd5BamU5-66" target="qIK1y274Gimavd5BamU5-78" edge="1">
          <mxGeometry relative="1" as="geometry" />
        </mxCell>
        <mxCell id="qIK1y274Gimavd5BamU5-81" style="edgeStyle=orthogonalEdgeStyle;rounded=0;orthogonalLoop=1;jettySize=auto;html=1;exitX=0.5;exitY=1;exitDx=0;exitDy=0;entryX=0;entryY=0.5;entryDx=0;entryDy=0;" parent="1" source="qIK1y274Gimavd5BamU5-66" target="qIK1y274Gimavd5BamU5-79" edge="1">
          <mxGeometry relative="1" as="geometry" />
        </mxCell>
        <mxCell id="qIK1y274Gimavd5BamU5-66" value="&lt;font style=&quot;font-size: 8px;&quot;&gt;Llegaste a India, para llegar a tokyo decides tomar un globo de aire o preguntar a la gente sobre algún método más rápido&lt;/font&gt;" style="rounded=0;whiteSpace=wrap;html=1;fillColor=#dae8fc;strokeColor=#6c8ebf;" parent="1" vertex="1">
          <mxGeometry x="420" y="520" width="150" height="70" as="geometry" />
        </mxCell>
        <mxCell id="qIK1y274Gimavd5BamU5-76" style="edgeStyle=orthogonalEdgeStyle;rounded=0;orthogonalLoop=1;jettySize=auto;html=1;exitX=0.5;exitY=1;exitDx=0;exitDy=0;entryX=1;entryY=0.5;entryDx=0;entryDy=0;" parent="1" source="qIK1y274Gimavd5BamU5-70" target="qIK1y274Gimavd5BamU5-73" edge="1">
          <mxGeometry relative="1" as="geometry" />
        </mxCell>
        <mxCell id="qIK1y274Gimavd5BamU5-77" style="edgeStyle=orthogonalEdgeStyle;rounded=0;orthogonalLoop=1;jettySize=auto;html=1;exitX=0.5;exitY=1;exitDx=0;exitDy=0;entryX=0;entryY=0.5;entryDx=0;entryDy=0;" parent="1" source="qIK1y274Gimavd5BamU5-70" target="qIK1y274Gimavd5BamU5-72" edge="1">
          <mxGeometry relative="1" as="geometry" />
        </mxCell>
        <mxCell id="qIK1y274Gimavd5BamU5-70" value="&lt;font style=&quot;font-size: 11px;&quot;&gt;Llegaste a China, pero te roban el pasaporte, decides ir al mercado negro o hablar con las autoridades&lt;/font&gt;" style="rounded=0;whiteSpace=wrap;html=1;fillColor=#dae8fc;strokeColor=#6c8ebf;" parent="1" vertex="1">
          <mxGeometry x="607.5" y="520" width="185" height="70" as="geometry" />
        </mxCell>
        <mxCell id="qIK1y274Gimavd5BamU5-93" style="edgeStyle=orthogonalEdgeStyle;rounded=0;orthogonalLoop=1;jettySize=auto;html=1;exitX=0.5;exitY=1;exitDx=0;exitDy=0;entryX=1;entryY=0.5;entryDx=0;entryDy=0;" parent="1" source="qIK1y274Gimavd5BamU5-72" target="qIK1y274Gimavd5BamU5-90" edge="1">
          <mxGeometry relative="1" as="geometry" />
        </mxCell>
        <mxCell id="qIK1y274Gimavd5BamU5-72" value="&lt;font style=&quot;font-size: 8px;&quot;&gt;Mercado&lt;br&gt;negro&lt;br&gt;&lt;/font&gt;" style="rhombus;whiteSpace=wrap;html=1;fillColor=#f8cecc;strokeColor=#b85450;" parent="1" vertex="1">
          <mxGeometry x="720" y="600" width="60" height="60" as="geometry" />
        </mxCell>
        <mxCell id="qIK1y274Gimavd5BamU5-83" style="edgeStyle=orthogonalEdgeStyle;rounded=0;orthogonalLoop=1;jettySize=auto;html=1;exitX=0.5;exitY=1;exitDx=0;exitDy=0;entryX=1;entryY=0.5;entryDx=0;entryDy=0;" parent="1" source="qIK1y274Gimavd5BamU5-73" target="qIK1y274Gimavd5BamU5-82" edge="1">
          <mxGeometry relative="1" as="geometry" />
        </mxCell>
        <mxCell id="qIK1y274Gimavd5BamU5-73" value="&lt;font style=&quot;font-size: 9px;&quot;&gt;Autoridades&lt;/font&gt;" style="rhombus;whiteSpace=wrap;html=1;fillColor=#f8cecc;strokeColor=#b85450;" parent="1" vertex="1">
          <mxGeometry x="620" y="600" width="60" height="60" as="geometry" />
        </mxCell>
        <mxCell id="qIK1y274Gimavd5BamU5-85" style="edgeStyle=orthogonalEdgeStyle;rounded=0;orthogonalLoop=1;jettySize=auto;html=1;exitX=0.5;exitY=1;exitDx=0;exitDy=0;" parent="1" source="qIK1y274Gimavd5BamU5-78" target="qIK1y274Gimavd5BamU5-82" edge="1">
          <mxGeometry relative="1" as="geometry" />
        </mxCell>
        <mxCell id="qIK1y274Gimavd5BamU5-78" value="&lt;font style=&quot;font-size: 8px;&quot;&gt;Globo de aire&lt;/font&gt;" style="rhombus;whiteSpace=wrap;html=1;fillColor=#f8cecc;strokeColor=#b85450;" parent="1" vertex="1">
          <mxGeometry x="414" y="600" width="60" height="60" as="geometry" />
        </mxCell>
        <mxCell id="qIK1y274Gimavd5BamU5-84" style="edgeStyle=orthogonalEdgeStyle;rounded=0;orthogonalLoop=1;jettySize=auto;html=1;exitX=0.5;exitY=1;exitDx=0;exitDy=0;entryX=0.5;entryY=0;entryDx=0;entryDy=0;" parent="1" source="qIK1y274Gimavd5BamU5-79" target="qIK1y274Gimavd5BamU5-82" edge="1">
          <mxGeometry relative="1" as="geometry" />
        </mxCell>
        <mxCell id="qIK1y274Gimavd5BamU5-79" value="&lt;font style=&quot;font-size: 8px;&quot;&gt;Hablar con gente&lt;/font&gt;" style="rhombus;whiteSpace=wrap;html=1;fillColor=#f8cecc;strokeColor=#b85450;" parent="1" vertex="1">
          <mxGeometry x="520" y="600" width="60" height="60" as="geometry" />
        </mxCell>
        <mxCell id="qIK1y274Gimavd5BamU5-87" style="edgeStyle=orthogonalEdgeStyle;rounded=0;orthogonalLoop=1;jettySize=auto;html=1;exitX=0.5;exitY=1;exitDx=0;exitDy=0;entryX=1;entryY=0.5;entryDx=0;entryDy=0;" parent="1" source="qIK1y274Gimavd5BamU5-82" target="qIK1y274Gimavd5BamU5-86" edge="1">
          <mxGeometry relative="1" as="geometry" />
        </mxCell>
        <mxCell id="qIK1y274Gimavd5BamU5-89" style="edgeStyle=orthogonalEdgeStyle;rounded=0;orthogonalLoop=1;jettySize=auto;html=1;exitX=0.5;exitY=1;exitDx=0;exitDy=0;entryX=0;entryY=0.5;entryDx=0;entryDy=0;" parent="1" source="qIK1y274Gimavd5BamU5-82" target="qIK1y274Gimavd5BamU5-88" edge="1">
          <mxGeometry relative="1" as="geometry" />
        </mxCell>
        <mxCell id="qIK1y274Gimavd5BamU5-82" value="Llegas a Tokyo pero notas que estas corto de tiempo asi que te apresuras a tomar el próximo vehículo, tomas un avión o otro globo de aire." style="rounded=0;whiteSpace=wrap;html=1;fillColor=#dae8fc;strokeColor=#6c8ebf;" parent="1" vertex="1">
          <mxGeometry x="395" y="700" width="200" height="80" as="geometry" />
        </mxCell>
        <mxCell id="qIK1y274Gimavd5BamU5-92" style="edgeStyle=orthogonalEdgeStyle;rounded=0;orthogonalLoop=1;jettySize=auto;html=1;exitX=0.5;exitY=1;exitDx=0;exitDy=0;entryX=0;entryY=0.5;entryDx=0;entryDy=0;" parent="1" source="qIK1y274Gimavd5BamU5-86" target="qIK1y274Gimavd5BamU5-90" edge="1">
          <mxGeometry relative="1" as="geometry" />
        </mxCell>
        <mxCell id="qIK1y274Gimavd5BamU5-86" value="Avión" style="rhombus;whiteSpace=wrap;html=1;fillColor=#f8cecc;strokeColor=#b85450;" parent="1" vertex="1">
          <mxGeometry x="414" y="790" width="60" height="60" as="geometry" />
        </mxCell>
        <mxCell id="qIK1y274Gimavd5BamU5-91" style="edgeStyle=orthogonalEdgeStyle;rounded=0;orthogonalLoop=1;jettySize=auto;html=1;exitX=0.5;exitY=1;exitDx=0;exitDy=0;entryX=0;entryY=0.5;entryDx=0;entryDy=0;" parent="1" source="qIK1y274Gimavd5BamU5-88" target="qIK1y274Gimavd5BamU5-90" edge="1">
          <mxGeometry relative="1" as="geometry" />
        </mxCell>
        <mxCell id="qIK1y274Gimavd5BamU5-88" value="Globo" style="rhombus;whiteSpace=wrap;html=1;fillColor=#f8cecc;strokeColor=#b85450;" parent="1" vertex="1">
          <mxGeometry x="520" y="790" width="60" height="60" as="geometry" />
        </mxCell>
        <mxCell id="qIK1y274Gimavd5BamU5-95" style="edgeStyle=orthogonalEdgeStyle;rounded=0;orthogonalLoop=1;jettySize=auto;html=1;exitX=0.5;exitY=1;exitDx=0;exitDy=0;entryX=1;entryY=0.5;entryDx=0;entryDy=0;" parent="1" source="qIK1y274Gimavd5BamU5-90" target="qIK1y274Gimavd5BamU5-94" edge="1">
          <mxGeometry relative="1" as="geometry" />
        </mxCell>
        <mxCell id="qIK1y274Gimavd5BamU5-97" style="edgeStyle=orthogonalEdgeStyle;rounded=0;orthogonalLoop=1;jettySize=auto;html=1;exitX=0.5;exitY=1;exitDx=0;exitDy=0;entryX=0;entryY=0.5;entryDx=0;entryDy=0;" parent="1" source="qIK1y274Gimavd5BamU5-90" target="qIK1y274Gimavd5BamU5-96" edge="1">
          <mxGeometry relative="1" as="geometry" />
        </mxCell>
        <mxCell id="qIK1y274Gimavd5BamU5-90" value="&lt;font style=&quot;font-size: 8px;&quot;&gt;Llegas a San Francisco y no dudas en tomar un trén a Nueva York, pero notas alguien te esta siguiendo en el tren, tu te escondes o intentas pelear&lt;/font&gt;" style="rounded=0;whiteSpace=wrap;html=1;fillColor=#dae8fc;strokeColor=#6c8ebf;" parent="1" vertex="1">
          <mxGeometry x="572.5" y="890" width="150" height="70" as="geometry" />
        </mxCell>
        <mxCell id="qIK1y274Gimavd5BamU5-101" style="edgeStyle=orthogonalEdgeStyle;rounded=0;orthogonalLoop=1;jettySize=auto;html=1;exitX=0;exitY=0.5;exitDx=0;exitDy=0;entryX=1;entryY=0.5;entryDx=0;entryDy=0;" parent="1" source="qIK1y274Gimavd5BamU5-94" target="qIK1y274Gimavd5BamU5-100" edge="1">
          <mxGeometry relative="1" as="geometry" />
        </mxCell>
        <mxCell id="qIK1y274Gimavd5BamU5-94" value="&lt;font style=&quot;font-size: 11px;&quot;&gt;Escondes&lt;/font&gt;" style="rhombus;whiteSpace=wrap;html=1;fillColor=#f8cecc;strokeColor=#b85450;" parent="1" vertex="1">
          <mxGeometry x="560" y="980" width="60" height="60" as="geometry" />
        </mxCell>
        <mxCell id="qIK1y274Gimavd5BamU5-99" style="edgeStyle=orthogonalEdgeStyle;rounded=0;orthogonalLoop=1;jettySize=auto;html=1;exitX=0.5;exitY=1;exitDx=0;exitDy=0;entryX=0.5;entryY=0;entryDx=0;entryDy=0;" parent="1" source="qIK1y274Gimavd5BamU5-96" target="qIK1y274Gimavd5BamU5-98" edge="1">
          <mxGeometry relative="1" as="geometry" />
        </mxCell>
        <mxCell id="qIK1y274Gimavd5BamU5-96" value="Peleas" style="rhombus;whiteSpace=wrap;html=1;fillColor=#f8cecc;strokeColor=#b85450;" parent="1" vertex="1">
          <mxGeometry x="680" y="980" width="60" height="60" as="geometry" />
        </mxCell>
        <mxCell id="qIK1y274Gimavd5BamU5-98" value="&lt;font style=&quot;font-size: 8px;&quot;&gt;Terminas inconsciente y despiertas en el hospital días despues del límite.&lt;br&gt;Fin Malo&lt;br&gt;&lt;/font&gt;" style="ellipse;whiteSpace=wrap;html=1;fillColor=#FF9999;strokeColor=#b85450;" parent="1" vertex="1">
          <mxGeometry x="650" y="1060" width="120" height="80" as="geometry" />
        </mxCell>
        <mxCell id="qIK1y274Gimavd5BamU5-104" style="edgeStyle=orthogonalEdgeStyle;rounded=0;orthogonalLoop=1;jettySize=auto;html=1;exitX=0;exitY=0.5;exitDx=0;exitDy=0;entryX=0.5;entryY=0;entryDx=0;entryDy=0;" parent="1" source="qIK1y274Gimavd5BamU5-100" target="qIK1y274Gimavd5BamU5-103" edge="1">
          <mxGeometry relative="1" as="geometry" />
        </mxCell>
        <mxCell id="qIK1y274Gimavd5BamU5-105" style="edgeStyle=orthogonalEdgeStyle;rounded=0;orthogonalLoop=1;jettySize=auto;html=1;exitX=0;exitY=0.5;exitDx=0;exitDy=0;entryX=0.5;entryY=1;entryDx=0;entryDy=0;" parent="1" source="qIK1y274Gimavd5BamU5-100" target="qIK1y274Gimavd5BamU5-102" edge="1">
          <mxGeometry relative="1" as="geometry" />
        </mxCell>
        <mxCell id="qIK1y274Gimavd5BamU5-100" value="&lt;font style=&quot;font-size: 9px;&quot;&gt;Esquivaste al asaltante y llegas a Nueva York, notas que no importa lo que tomes la victoria esta garantizada. Tomas un globo de aire o un avión&lt;/font&gt;" style="rounded=0;whiteSpace=wrap;html=1;fillColor=#dae8fc;strokeColor=#6c8ebf;" parent="1" vertex="1">
          <mxGeometry x="340" y="980" width="170" height="60" as="geometry" />
        </mxCell>
        <mxCell id="qIK1y274Gimavd5BamU5-107" style="edgeStyle=orthogonalEdgeStyle;rounded=0;orthogonalLoop=1;jettySize=auto;html=1;exitX=0;exitY=0.5;exitDx=0;exitDy=0;entryX=1;entryY=0.5;entryDx=0;entryDy=0;" parent="1" source="qIK1y274Gimavd5BamU5-102" target="qIK1y274Gimavd5BamU5-106" edge="1">
          <mxGeometry relative="1" as="geometry" />
        </mxCell>
        <mxCell id="qIK1y274Gimavd5BamU5-102" value="Globo" style="rhombus;whiteSpace=wrap;html=1;fillColor=#f8cecc;strokeColor=#b85450;" parent="1" vertex="1">
          <mxGeometry x="240" y="930" width="60" height="60" as="geometry" />
        </mxCell>
        <mxCell id="qIK1y274Gimavd5BamU5-108" style="edgeStyle=orthogonalEdgeStyle;rounded=0;orthogonalLoop=1;jettySize=auto;html=1;exitX=0;exitY=0.5;exitDx=0;exitDy=0;" parent="1" source="qIK1y274Gimavd5BamU5-103" edge="1">
          <mxGeometry relative="1" as="geometry">
            <mxPoint x="180" y="1010" as="targetPoint" />
            <Array as="points">
              <mxPoint x="210" y="1060" />
              <mxPoint x="210" y="1010" />
            </Array>
          </mxGeometry>
        </mxCell>
        <mxCell id="qIK1y274Gimavd5BamU5-103" value="Avión" style="rhombus;whiteSpace=wrap;html=1;fillColor=#f8cecc;strokeColor=#b85450;" parent="1" vertex="1">
          <mxGeometry x="240" y="1030" width="60" height="60" as="geometry" />
        </mxCell>
        <mxCell id="qIK1y274Gimavd5BamU5-106" value="&lt;font style=&quot;font-size: 10px;&quot;&gt;Llegas a Londres y completas la vuelta al mundo, felicitaciones.&lt;br&gt;Final bueno.&lt;br&gt;&lt;/font&gt;" style="ellipse;whiteSpace=wrap;html=1;fillColor=#d5e8d4;strokeColor=#82b366;" parent="1" vertex="1">
          <mxGeometry x="60" y="970" width="120" height="80" as="geometry" />
        </mxCell>
      </root>
    </mxGraphModel>
  </diagram>
</mxfile>
